<svg data-name="Layer 1" xmlns="http://www.w3.org/2000/svg" width="141" height="88.908"><path d="M79.371 55.045L63.65 62.443a.738.738 0 00-.4.484 42.59 42.59 0 01-4.78 18.523.738.738 0 00.896.9A40.379 40.379 0 0178.2 77.564a.738.738 0 00.491-.411l7.088-15.717a.738.738 0 00-.15-.824l-5.423-5.422a.738.738 0 00-.835-.146z" fill="#2d3748"/><path d="M141 12.928a12.886 12.886 0 01-4.57 9.86l-39.17 33.21-5.62 4.77a5.513 5.513 0 01-7.46-.31l-4.11-4.11a5.511 5.511 0 01-.27-7.5l6.03-6.95 32.48-37.44a12.927 12.927 0 0122.69 8.47z" fill="#2d3748"/><path d="M98.175 55.083l-6.535 5.685a5.513 5.513 0 01-7.46-.31l-4.11-4.11a5.511 5.511 0 01-.27-7.5l6.03-6.95z" fill="#cbd5e0"/><path d="M29 86.252c-12.15 0-22-3.736-22-8.344s9.85-8.345 22-8.345c7.754 0 14.565 1.523 18.484 3.821l5.88-1.439C48.2 68.915 39.222 66.908 29 66.908c-16.016 0-29 4.924-29 11s12.984 11 29 11c8.356 0 15.88-1.343 21.173-3.488l-5.11-1.813A44.529 44.529 0 0129 86.252z" fill="#2d3748"/><ellipse cx="57" cy="83.908" rx="5" ry="2" fill="#2d3748"/></svg>