<?xml version="1.0" encoding="utf-8"?>
<!-- Generator: Adobe Illustrator 21.0.2, SVG Export Plug-In . SVG Version: 6.00 Build 0)  -->
<svg version="1.1" id="Layer_1" xmlns="http://www.w3.org/2000/svg" xmlns:xlink="http://www.w3.org/1999/xlink" x="0px" y="0px"
	 viewBox="0 0 240 64" style="enable-background:new 0 0 240 64;" xml:space="preserve">
<style type="text/css">
	.st0{fill:#2E2E2E;}
	.st1{fill:url(#SVGID_1_);}
</style>
<g>
	<path class="st0" d="M848.7-114.1h11.2v4.2h-16.5v-25.6h5.3L848.7-114.1L848.7-114.1z M873.6-109.8c-0.2-0.5-0.4-1-0.5-1.7
		c-1.2,1.4-2.8,2.1-4.8,2.1c-1.9,0-3.4-0.5-4.6-1.6c-1.2-1.1-1.8-2.4-1.8-4.1c0-2,0.7-3.6,2.2-4.6c1.5-1.1,3.7-1.6,6.5-1.6h2.3v-1.1
		c0-0.9-0.2-1.6-0.7-2.1c-0.5-0.5-1.2-0.8-2.1-0.8c-0.9,0-1.5,0.2-2,0.6c-0.5,0.4-0.7,1-0.7,1.7h-5.1c0-1.1,0.3-2.1,1-3.1
		c0.7-0.9,1.6-1.7,2.9-2.2c1.2-0.5,2.6-0.8,4.2-0.8c2.3,0,4.2,0.6,5.6,1.8c1.4,1.2,2.1,2.8,2.1,5v8.2c0,1.8,0.3,3.2,0.8,4.1v0.3
		L873.6-109.8L873.6-109.8z M869.4-113.4c0.8,0,1.4-0.2,2.1-0.5c0.6-0.3,1.1-0.8,1.4-1.3v-3.3H871c-2.5,0-3.9,0.9-4.1,2.6l0,0.3
		c0,0.6,0.2,1.2,0.7,1.6C868.1-113.6,868.7-113.4,869.4-113.4L869.4-113.4z M892.6-124.1c-0.7-0.1-1.3-0.1-1.8-0.1
		c-1.9,0-3.2,0.7-3.8,2v12.4h-5.1v-19h4.8l0.1,2.3c1-1.7,2.4-2.6,4.2-2.6c0.6,0,1.1,0.1,1.6,0.2C892.7-129,892.6-124.1,892.6-124.1z
		 M905.5-109.8c-0.2-0.5-0.4-1-0.5-1.7c-1.2,1.4-2.8,2.1-4.8,2.1c-1.9,0-3.4-0.5-4.6-1.6c-1.2-1.1-1.8-2.4-1.8-4.1
		c0-2,0.7-3.6,2.2-4.6c1.5-1.1,3.7-1.6,6.5-1.6h2.3v-1.1c0-0.9-0.2-1.6-0.7-2.1c-0.5-0.5-1.2-0.8-2.1-0.8c-0.9,0-1.5,0.2-2,0.6
		c-0.5,0.4-0.7,1-0.7,1.7h-5.1c0-1.1,0.3-2.1,1-3.1c0.7-0.9,1.6-1.7,2.9-2.2c1.2-0.5,2.6-0.8,4.2-0.8c2.3,0,4.2,0.6,5.6,1.8
		c1.4,1.2,2.1,2.8,2.1,5v8.2c0,1.8,0.3,3.2,0.8,4.1v0.3L905.5-109.8L905.5-109.8z M901.3-113.4c0.8,0,1.4-0.2,2.1-0.5
		c0.6-0.3,1.1-0.8,1.4-1.3v-3.3h-1.9c-2.5,0-3.9,0.9-4.1,2.6l0,0.3c0,0.6,0.2,1.2,0.7,1.6C900-113.6,900.6-113.4,901.3-113.4
		L901.3-113.4z M920.7-116l3.5-12.8h5.3l-6.4,19h-4.9l-6.4-19h5.3L920.7-116z M940.3-109.5c-2.8,0-5.1-0.9-6.8-2.6
		c-1.8-1.7-2.6-4-2.6-6.8v-0.5c0-1.9,0.4-3.6,1.1-5.1c0.7-1.5,1.8-2.7,3.1-3.5c1.4-0.8,2.9-1.2,4.6-1.2c2.6,0,4.6,0.8,6.1,2.5
		c1.5,1.6,2.2,4,2.2,7v2.1H936c0.2,1.2,0.7,2.2,1.5,3c0.8,0.8,1.9,1.1,3.1,1.1c2,0,3.5-0.7,4.6-2.1l2.5,2.8
		c-0.8,1.1-1.8,1.9-3.1,2.5C943.3-109.8,941.9-109.5,940.3-109.5L940.3-109.5z M939.7-125.1c-1,0-1.8,0.3-2.5,1s-1,1.7-1.2,2.9h7.1
		v-0.4c0-1.1-0.3-2-0.9-2.6C941.6-124.8,940.8-125.1,939.7-125.1L939.7-125.1z M956.3-109.8h-5.1v-27h5.1V-109.8z"/>
	
		<linearGradient id="SVGID_1_" gradientUnits="userSpaceOnUse" x1="-18.5421" y1="159.1963" x2="-18.5421" y2="158.1963" gradientTransform="matrix(76.7405 0 0 -52.5328 2204.4734 8213.1777)">
		<stop  offset="0" style="stop-color:#EE210F"/>
		<stop  offset="1" style="stop-color:#E65822"/>
	</linearGradient>
	<path class="st1" d="M815.5-125.9c-0.5,0.1-8.8,2.2-8.8,2.2l-6.8-9.3c-0.2-0.3-0.4-0.5,0.1-0.6c0.5-0.1,8.2-1.5,8.6-1.5
		c0.4-0.1,0.7-0.2,1.1,0.4c0.4,0.6,6.3,8,6.5,8.3C816.4-126.2,816-126,815.5-125.9 M814.1-109.8c0.2,0.3,0.4,0.5-0.2,0.8
		c-0.7,0.2-22,7.5-22.4,7.6c-0.4,0.2-0.7,0.2-1.3-0.5c-0.5-0.8-7.5-12.8-7.5-12.8l22.7-5.9c0.7-0.2,0.8-0.1,1.1,0.3
		C806.8-119.8,813.9-110.1,814.1-109.8 M777.4-116.7c-0.3,0.1-13.3,3.2-14,3.3c-0.7,0.2-0.7,0.1-0.8-0.2c-0.1-0.2-15.5-32-15.7-32.4
		c-0.2-0.4-0.2-0.7,0-0.7c0.2,0,12.3-1.1,12.7-1.1c0.4,0,0.4,0.1,0.5,0.3l17.3,29.9C777.8-116.9,778-116.8,777.4-116.7 M810.9-136.2
		c-1.2-1.5-1.8-1.2-2.6-1.1c-0.8,0.1-9.7,1.6-10.7,1.8c-1,0.2-1.7,0.6-1,1.5c0.6,0.8,6.4,9.1,7.7,10.9l-23.2,5.6l-18.5-30.9
		c-0.7-1.1-0.9-1.5-2.6-1.4c-1.7,0.1-14.5,1.1-15.4,1.2c-0.9,0.1-1.9,0.5-1,2.6c0.9,2.2,15.5,33.5,15.9,34.4
		c0.4,0.9,1.5,2.4,3.9,1.8c2.5-0.6,11.3-2.9,16.1-4.2c2.5,4.6,7.7,13.9,8.7,15.2c1.3,1.8,2.2,1.5,4.1,0.9c1.5-0.5,23.9-8.5,24.9-8.9
		c1-0.4,1.6-0.7,1-1.7c-0.5-0.7-6.4-8.7-9.5-12.8c2.1-0.6,9.7-2.6,10.5-2.8c0.9-0.3,1.1-0.7,0.6-1.3
		C819.1-125.9,812.1-134.7,810.9-136.2L810.9-136.2z"/>
</g>
<image style="overflow:visible;" width="949" height="949" xlink:href="temp/logo.png"  transform="matrix(5.413865e-02 0 0 5.413865e-02 560.5471 -162.5322)">
</image>
<image style="overflow:visible;" width="1543" height="671" xlink:href="temp/logo-text.png"  transform="matrix(7.892404e-02 0 0 7.892404e-02 59.1101 5.521)">
</image>
</svg>
